<svg width="30" height="30" viewBox="0 0 30 30" fill="none" xmlns="http://www.w3.org/2000/svg">
<g clip-path="url(#clip0_1_320)">
<path d="M15 11.25C15.6875 11.25 16.25 10.6875 16.25 10V7.5H18.75C19.4375 7.5 20 6.9375 20 6.25C20 5.5625 19.4375 5 18.75 5H16.25V2.5C16.25 1.8125 15.6875 1.25 15 1.25C14.3125 1.25 13.75 1.8125 13.75 2.5V5H11.25C10.5625 5 10 5.5625 10 6.25C10 6.9375 10.5625 7.5 11.25 7.5H13.75V10C13.75 10.6875 14.3125 11.25 15 11.25ZM8.75 22.5C7.375 22.5 6.2625 23.625 6.2625 25C6.2625 26.375 7.375 27.5 8.75 27.5C10.125 27.5 11.25 26.375 11.25 25C11.25 23.625 10.125 22.5 8.75 22.5ZM21.25 22.5C19.875 22.5 18.7625 23.625 18.7625 25C18.7625 26.375 19.875 27.5 21.25 27.5C22.625 27.5 23.75 26.375 23.75 25C23.75 23.625 22.625 22.5 21.25 22.5ZM10.125 16.25H19.4375C20.375 16.25 21.2 15.7375 21.625 14.9625L25.85 7.3C26.1875 6.7 25.9625 5.9375 25.3625 5.6C25.0738 5.44201 24.7344 5.40459 24.4183 5.49592C24.1021 5.58725 23.8349 5.79991 23.675 6.0875L19.4375 13.75H10.6625L5.675 3.2125C5.57454 2.99913 5.41537 2.8188 5.21613 2.69262C5.0169 2.56643 4.78583 2.49962 4.55 2.5H2.5C1.8125 2.5 1.25 3.0625 1.25 3.75C1.25 4.4375 1.8125 5 2.5 5H3.75L8.25 14.4875L6.5625 17.5375C5.65 19.2125 6.85 21.25 8.75 21.25H22.5C23.1875 21.25 23.75 20.6875 23.75 20C23.75 19.3125 23.1875 18.75 22.5 18.75H8.75L10.125 16.25Z" fill="white"/>
</g>
<defs>
<clipPath id="clip0_1_320">
<rect width="30" height="30" fill="white"/>
</clipPath>
</defs>
</svg>
