<svg width="42" height="42" viewBox="0 0 42 42" fill="none" xmlns="http://www.w3.org/2000/svg">
<path d="M8.75 12.25H33.25C34.3 12.25 35 11.55 35 10.5C35 9.45 34.3 8.75 33.25 8.75H8.75C7.7 8.75 7 9.45 7 10.5C7 11.55 7.7 12.25 8.75 12.25ZM8.75 22.75H33.25C34.3 22.75 35 22.05 35 21C35 19.95 34.3 19.25 33.25 19.25H8.75C7.7 19.25 7 19.95 7 21C7 22.05 7.7 22.75 8.75 22.75ZM8.75 33.25H33.25C34.3 33.25 35 32.55 35 31.5C35 30.45 34.3 29.75 33.25 29.75H8.75C7.7 29.75 7 30.45 7 31.5C7 32.55 7.7 33.25 8.75 33.25Z" fill="white"/>
</svg>
