<svg width="22" height="22" viewBox="0 0 22 22" fill="none" xmlns="http://www.w3.org/2000/svg">
<circle cx="11" cy="11" r="11" fill="#1196AB"/>
<path d="M10.0696 15.413V8.73478H11.9217V15.413H10.0696ZM11 7.87391C10.7246 7.87391 10.4884 7.78261 10.2913 7.6C10.0971 7.41449 10 7.19275 10 6.93478C10 6.67971 10.0971 6.46087 10.2913 6.27826C10.4884 6.09275 10.7246 6 11 6C11.2754 6 11.5101 6.09275 11.7043 6.27826C11.9014 6.46087 12 6.67971 12 6.93478C12 7.19275 11.9014 7.41449 11.7043 7.6C11.5101 7.78261 11.2754 7.87391 11 7.87391Z" fill="white"/>
</svg>
