<svg width="27" height="27" viewBox="0 0 27 27" fill="none" xmlns="http://www.w3.org/2000/svg">
<path fill-rule="evenodd" clip-rule="evenodd" d="M4.76904 11.6899C4.78525 6.91919 8.66578 3.06495 13.4364 3.08111C18.2071 3.09736 22.0613 6.97789 22.0452 11.7485V11.8464C21.9864 14.9475 20.2549 17.8138 18.1321 20.054C16.918 21.3147 15.5623 22.4308 14.0919 23.3801C13.6987 23.7202 13.1155 23.7202 12.7223 23.3801C10.5302 21.9533 8.60634 20.1519 7.03861 18.0583C5.64131 16.2327 4.84798 14.0168 4.76904 11.7192V11.6899Z" stroke="#CDCDCD" stroke-width="1.5" stroke-linecap="round" stroke-linejoin="round"/>
<path d="M13.4068 14.6242C14.9359 14.6242 16.1754 13.3846 16.1754 11.8555C16.1754 10.3265 14.9359 9.08691 13.4068 9.08691C11.8777 9.08691 10.6382 10.3265 10.6382 11.8555C10.6382 13.3846 11.8777 14.6242 13.4068 14.6242Z" stroke="#CDCDCD" stroke-width="1.5" stroke-linecap="round" stroke-linejoin="round"/>
</svg>
