<svg width="24" height="24" viewBox="0 0 24 24" fill="none" xmlns="http://www.w3.org/2000/svg">
<path d="M22.2857 7.98172C22.2857 7.25851 22.1897 6.62012 21.9978 6.06655C21.8058 5.51297 21.5603 5.07324 21.2612 4.74735C20.9621 4.42146 20.5982 4.15583 20.1696 3.95047C19.7411 3.74512 19.3214 3.60672 18.9107 3.5353C18.5 3.46387 18.0625 3.42815 17.5982 3.42815C17.1339 3.42815 16.6339 3.54199 16.0982 3.76967C15.5625 3.99735 15.0692 4.28306 14.6183 4.62681C14.1674 4.97056 13.7813 5.29199 13.4598 5.5911C13.1384 5.89021 12.8705 6.16476 12.6563 6.41476C12.4955 6.61119 12.2768 6.7094 12 6.7094C11.7232 6.7094 11.5045 6.61119 11.3438 6.41476C11.1295 6.16476 10.8616 5.89021 10.5402 5.5911C10.2188 5.29199 9.83259 4.97056 9.3817 4.62681C8.9308 4.28306 8.4375 3.99735 7.90179 3.76967C7.36607 3.54199 6.86607 3.42815 6.40179 3.42815C5.9375 3.42815 5.5 3.46387 5.08929 3.5353C4.67857 3.60672 4.25893 3.74512 3.83036 3.95047C3.40179 4.15583 3.03795 4.42146 2.73884 4.74735C2.43973 5.07324 2.1942 5.51297 2.00223 6.06655C1.81027 6.62012 1.71429 7.25851 1.71429 7.98172C1.71429 9.48172 2.54911 11.0665 4.21875 12.7362L12 20.2362L19.7679 12.7496C21.4464 11.071 22.2857 9.48172 22.2857 7.98172ZM24 7.98172C24 9.95494 22.9777 11.9639 20.933 14.0085L12.5893 22.0442C12.4286 22.2049 12.2321 22.2853 12 22.2853C11.7679 22.2853 11.5714 22.2049 11.4107 22.0442L3.05357 13.9817C2.96429 13.9103 2.84152 13.7942 2.68527 13.6335C2.52902 13.4728 2.28125 13.1804 1.94196 12.7563C1.60268 12.3322 1.29911 11.8969 1.03125 11.4505C0.763393 11.004 0.524554 10.4639 0.314732 9.82994C0.104911 9.19601 0 8.57994 0 7.98172C0 6.01744 0.566964 4.48172 1.70089 3.37458C2.83482 2.26744 4.40179 1.71387 6.40179 1.71387C6.95536 1.71387 7.52009 1.80985 8.09598 2.00181C8.67188 2.19378 9.20759 2.45271 9.70313 2.7786C10.1987 3.10449 10.625 3.4103 10.9821 3.69601C11.3393 3.98172 11.6786 4.2853 12 4.60672C12.3214 4.2853 12.6607 3.98172 13.0179 3.69601C13.375 3.4103 13.8013 3.10449 14.2969 2.7786C14.7924 2.45271 15.3281 2.19378 15.904 2.00181C16.4799 1.80985 17.0446 1.71387 17.5982 1.71387C19.5982 1.71387 21.1652 2.26744 22.2991 3.37458C23.433 4.48172 24 6.01744 24 7.98172Z" fill="#CDCDCD"/>
</svg>
